<!DOCTYPE svg PUBLIC "-//W3C//DTD SVG 1.1//EN" "http://www.w3.org/Graphics/SVG/1.1/DTD/svg11.dtd">
<!-- Uploaded to: SVG Repo, www.svgrepo.com, Transformed by: SVG Repo Mixer Tools -->
<svg fill="#2e42a3" height="800px" width="800px" version="1.1" id="Capa_1" xmlns="http://www.w3.org/2000/svg" xmlns:xlink="http://www.w3.org/1999/xlink" viewBox="-48.62 -48.62 583.44 583.44" xml:space="preserve" stroke="#2e42a3" transform="matrix(-1, 0, 0, 1, 0, 0)">
<g id="SVGRepo_bgCarrier" stroke-width="0" transform="translate(0,0), scale(1)">
<path transform="translate(-48.62, -48.62), scale(18.2325)" d="M16,27.487885665148497C17.992015649685175,27.990041527716176,20.21812901553063,29.483353028533,22.005785219314113,28.47114151112364C23.838975806990376,27.433147392050234,23.459297532066056,24.590735585738642,24.424080542738377,22.717980058635895C25.193159627156472,21.225108511157647,26.61991710213939,20.140983857669198,27.12266947878487,18.53867672633114C27.641381238050283,16.885505921798163,27.26943526483716,15.141730387332457,27.344400720862648,13.410714564596189C27.442185338274516,11.152784993640138,29.169193410874282,8.380859227057016,27.634422890687105,6.721857349672742C26.04170711191544,5.000219859007688,22.98778138536138,6.765476386519843,20.70375738868166,6.232547138117313C18.993151064353185,5.833412915332341,17.700751199454103,4.4464431149688775,16,4.007208004593849C14.017742112095332,3.495271124899134,11.849578405862811,2.669816062845224,9.96003258065901,3.457878419138634C8.078055309416882,4.24278420077309,7.597287786133938,6.714020414490127,6.1256331508339645,8.125455205727494C4.404251406822247,9.77639831712112,1.3093726068941014,10.211817736747424,0.5577618528810842,12.475409912941464C-0.174597550046528,14.681023664178941,1.535795923276131,16.96376871280941,2.486823356905594,19.084294387067686C3.3213042007445117,20.94495370294456,4.165936368095091,22.909046778692627,5.790119922150739,24.14210766576539C7.333485686710681,25.313812645768415,9.453134773297535,25.16757678831899,11.294532944028907,25.771003022590207C12.901290375129763,26.297537479638894,14.360460635086142,27.074583538665653,16,27.487885665148497" fill="#fbe0ff" strokewidth="0"/>
</g>
<g id="SVGRepo_tracerCarrier" stroke-linecap="round" stroke-linejoin="round" stroke="#5b32cd" stroke-width="23.337408"> <g> <path d="M481.708,220.456l-228.8-204.6c-0.4-0.4-0.8-0.7-1.3-1c-5-4.8-13-5-18.3-0.3l-228.8,204.6c-5.6,5-6,13.5-1.1,19.1 c2.7,3,6.4,4.5,10.1,4.5c3.2,0,6.4-1.1,9-3.4l41.2-36.9v7.2v106.8v124.6c0,18.7,15.2,34,34,34c0.3,0,0.5,0,0.8,0s0.5,0,0.8,0h70.6 c17.6,0,31.9-14.3,31.9-31.9v-121.3c0-2.7,2.2-4.9,4.9-4.9h72.9c2.7,0,4.9,2.2,4.9,4.9v121.3c0,17.6,14.3,31.9,31.9,31.9h72.2 c19,0,34-18.7,34-42.6v-111.2v-34v-83.5l41.2,36.9c2.6,2.3,5.8,3.4,9,3.4c3.7,0,7.4-1.5,10.1-4.5 C487.708,233.956,487.208,225.456,481.708,220.456z M395.508,287.156v34v111.1c0,9.7-4.8,15.6-7,15.6h-72.2c-2.7,0-4.9-2.2-4.9-4.9 v-121.1c0-17.6-14.3-31.9-31.9-31.9h-72.9c-17.6,0-31.9,14.3-31.9,31.9v121.3c0,2.7-2.2,4.9-4.9,4.9h-70.6c-0.3,0-0.5,0-0.8,0 s-0.5,0-0.8,0c-3.8,0-7-3.1-7-7v-124.7v-106.8v-31.3l151.8-135.6l153.1,136.9L395.508,287.156L395.508,287.156z"/> </g> </g>
<g id="SVGRepo_iconCarrier"> <g> <path d="M481.708,220.456l-228.8-204.6c-0.4-0.4-0.8-0.7-1.3-1c-5-4.8-13-5-18.3-0.3l-228.8,204.6c-5.6,5-6,13.5-1.1,19.1 c2.7,3,6.4,4.5,10.1,4.5c3.2,0,6.4-1.1,9-3.4l41.2-36.9v7.2v106.8v124.6c0,18.7,15.2,34,34,34c0.3,0,0.5,0,0.8,0s0.5,0,0.8,0h70.6 c17.6,0,31.9-14.3,31.9-31.9v-121.3c0-2.7,2.2-4.9,4.9-4.9h72.9c2.7,0,4.9,2.2,4.9,4.9v121.3c0,17.6,14.3,31.9,31.9,31.9h72.2 c19,0,34-18.7,34-42.6v-111.2v-34v-83.5l41.2,36.9c2.6,2.3,5.8,3.4,9,3.4c3.7,0,7.4-1.5,10.1-4.5 C487.708,233.956,487.208,225.456,481.708,220.456z M395.508,287.156v34v111.1c0,9.7-4.8,15.6-7,15.6h-72.2c-2.7,0-4.9-2.2-4.9-4.9 v-121.1c0-17.6-14.3-31.9-31.9-31.9h-72.9c-17.6,0-31.9,14.3-31.9,31.9v121.3c0,2.7-2.2,4.9-4.9,4.9h-70.6c-0.3,0-0.5,0-0.8,0 s-0.5,0-0.8,0c-3.8,0-7-3.1-7-7v-124.7v-106.8v-31.3l151.8-135.6l153.1,136.9L395.508,287.156L395.508,287.156z"/> </g> </g>
</svg>